<?xml version="1.0" encoding="utf-8"?><!-- Uploaded to: SVG Repo, www.svgrepo.com, Generator: SVG Repo Mixer Tools -->
<svg width="800px" height="800px" viewBox="0 0 24 24" fill='none' xmlns="http://www.w3.org/2000/svg">
<path d="M21 10.5V8C21 6.89543 20.1046 6 19 6H5C3.89543 6 3 6.89543 3 8V17C3 18.1046 3.89543 19 5 19H12" stroke="#ecbc79" stroke-width="2" stroke-linecap="round" stroke-linejoin="round"/>
<path d="M15 16.4286C15 15.9552 15.3838 15.5714 15.8571 15.5714H20.1429C20.6162 15.5714 21 15.9552 21 16.4286V19.1429C21 19.6162 20.6162 20 20.1429 20H15.8571C15.3838 20 15 19.6162 15 19.1429V16.4286Z" stroke="#ecbc79" stroke-width="2" stroke-linecap="round" stroke-linejoin="round"/>
<path d="M16.7143 14.2857C16.7143 13.5756 17.2899 13 18 13C18.7101 13 19.2857 13.5756 19.2857 14.2857V15.5714H16.7143V14.2857Z" stroke="#ecbc79" stroke-width="2" stroke-linecap="round" stroke-linejoin="round"/>
<path d="M3 10H20.5" stroke="#ecbc79" stroke-width="2" stroke-linecap="round" stroke-linejoin="round"/>
<path d="M7 15H9" stroke="#ecbc79" stroke-width="2" stroke-linecap="round" stroke-linejoin="round"/>
</svg>